<svg xmlns="http://www.w3.org/2000/svg" xmlns:xlink="http://www.w3.org/1999/xlink" width="800" height="521.04"><rect width="800" height="521.04" rx="0" ry="0" class="a"/><svg height="521.04" viewBox="0 0 80 52.104" width="800" xmlns="http://www.w3.org/2000/svg" xmlns:xlink="http://www.w3.org/1999/xlink"><style>@keyframes f{0%{transform:translateX(0)}90.2%{transform:translateX(-80px)}to{transform:translateX(-160px)}}.a{fill:#282d35}.c{fill:#b9c0cb;white-space:pre}</style><g font-family="Monaco,Consolas,Menlo,'Bitstream Vera Sans Mono','Powerline Symbols',monospace" font-size="1.67"><defs><symbol id="1"><text x="1.002" y="1.67" class="c">‚Ėą‚Ėą‚Ėą‚Ėą‚Ėą‚ēó</text><text x="8.016" y="1.67" class="c">‚Ėą‚Ėą‚Ėą‚Ėą‚Ėą‚Ėą‚ēó</text><text x="17.034" y="1.67" class="c">‚Ėą‚Ėą‚Ėą‚Ėą‚Ėą‚Ėą‚ēó</text><text x="25.05" y="1.67" class="c">‚Ėą‚Ėą‚ēó</text><text x="31.062" y="1.67" class="c">‚Ėą‚Ėą‚ēó</text><text x="35.07" y="1.67" class="c">‚Ėą‚Ėą‚Ėą‚Ėą‚Ėą‚ēó</text><text x="42.084" y="1.67" class="c">‚Ėą‚Ėą‚Ėą‚Ėą‚Ėą‚Ėą‚ēó</text><text x="50.1" y="1.67" class="c">‚Ėą‚Ėą‚Ėą‚Ėą‚Ėą‚Ėą‚ēó</text></symbol><symbol id="2"><text y="1.67" class="c">‚Ėą‚Ėą‚ēĒ‚ēź‚ēź‚Ėą‚Ėą‚ēó‚Ėą‚Ėą‚ēĒ‚ēź‚ēź‚Ėą‚Ėą‚ēó‚Ėą‚Ėą‚ēĒ‚ēź‚ēź‚ēź‚ēź‚ēĚ</text><text x="25.05" y="1.67" class="c">‚Ėą‚Ėą‚ēĎ</text><text x="31.062" y="1.67" class="c">‚Ėą‚Ėą‚ēĎ‚Ėą‚Ėą‚ēĒ‚ēź‚ēź‚Ėą‚Ėą‚ēó‚Ėą‚Ėą‚ēĒ‚ēź‚ēź‚Ėą‚Ėą‚ēó‚Ėą‚Ėą‚ēĒ‚ēź‚ēź‚Ėą‚Ėą‚ēó</text></symbol><symbol id="3"><text y="1.67" class="c">‚Ėą‚Ėą‚Ėą‚Ėą‚Ėą‚Ėą‚Ėą‚ēĎ‚Ėą‚Ėą‚ēĎ</text><text x="13.026" y="1.67" class="c">‚Ėą‚Ėą‚ēĎ‚Ėą‚Ėą‚ēĎ</text><text x="21.042" y="1.67" class="c">‚Ėą‚Ėą‚Ėą‚ēó‚Ėą‚Ėą‚ēĎ</text><text x="31.062" y="1.67" class="c">‚Ėą‚Ėą‚ēĎ‚Ėą‚Ėą‚Ėą‚Ėą‚Ėą‚Ėą‚Ėą‚ēĎ‚Ėą‚Ėą‚Ėą‚Ėą‚Ėą‚Ėą‚ēĒ‚ēĚ‚Ėą‚Ėą‚ēĎ</text><text x="55.11" y="1.67" class="c">‚Ėą‚Ėą‚ēĎ</text></symbol><symbol id="4"><text y="1.67" class="c">‚Ėą‚Ėą‚ēĒ‚ēź‚ēź‚Ėą‚Ėą‚ēĎ‚Ėą‚Ėą‚ēĎ</text><text x="13.026" y="1.67" class="c">‚Ėą‚Ėą‚ēĎ‚Ėą‚Ėą‚ēĎ</text><text x="22.044" y="1.67" class="c">‚Ėą‚Ėą‚ēĎ‚Ėą‚Ėą‚ēĎ</text><text x="31.062" y="1.67" class="c">‚Ėą‚Ėą‚ēĎ‚Ėą‚Ėą‚ēĒ‚ēź‚ēź‚Ėą‚Ėą‚ēĎ‚Ėą‚Ėą‚ēĒ‚ēź‚ēź‚Ėą‚Ėą‚ēó‚Ėą‚Ėą‚ēĎ</text><text x="55.11" y="1.67" class="c">‚Ėą‚Ėą‚ēĎ</text></symbol><symbol id="5"><text y="1.67" class="c">‚Ėą‚Ėą‚ēĎ</text><text x="5.01" y="1.67" class="c">‚Ėą‚Ėą‚ēĎ‚Ėą‚Ėą‚Ėą‚Ėą‚Ėą‚Ėą‚ēĒ‚ēĚ‚ēö‚Ėą‚Ėą‚Ėą‚Ėą‚Ėą‚Ėą‚ēĒ‚ēĚ‚ēö‚Ėą‚Ėą‚Ėą‚Ėą‚Ėą‚Ėą‚ēĒ‚ēĚ‚Ėą‚Ėą‚ēĎ</text><text x="39.078" y="1.67" class="c">‚Ėą‚Ėą‚ēĎ‚Ėą‚Ėą‚ēĎ</text><text x="47.094" y="1.67" class="c">‚Ėą‚Ėą‚ēĎ‚Ėą‚Ėą‚Ėą‚Ėą‚Ėą‚Ėą‚ēĒ‚ēĚ</text></symbol><symbol id="6"><text y="1.67" class="c">‚ēö‚ēź‚ēĚ</text><text x="5.01" y="1.67" class="c">‚ēö‚ēź‚ēĚ‚ēö‚ēź‚ēź‚ēź‚ēź‚ēź‚ēĚ</text><text x="17.034" y="1.67" class="c">‚ēö‚ēź‚ēź‚ēź‚ēź‚ēź‚ēĚ</text><text x="26.052" y="1.67" class="c">‚ēö‚ēź‚ēź‚ēź‚ēź‚ēź‚ēĚ</text><text x="34.068" y="1.67" class="c">‚ēö‚ēź‚ēĚ</text><text x="39.078" y="1.67" class="c">‚ēö‚ēź‚ēĚ‚ēö‚ēź‚ēĚ</text><text x="47.094" y="1.67" class="c">‚ēö‚ēź‚ēĚ‚ēö‚ēź‚ēź‚ēź‚ēź‚ēź‚ēĚ</text></symbol><symbol id="7"><text x="5.01" y="1.67" class="c">AdGuard</text><text x="13.026" y="1.67" class="c">Home</text><text x="18.036" y="1.67" class="c">Updater</text></symbol><symbol id="8"><text x="5.01" y="1.67" class="c">Foxly</text><text x="11.022" y="1.67" class="c">Infrastructure</text><text x="26.052" y="1.67" class="c">Tools</text></symbol><symbol id="a"><path fill="transparent" d="M0 0h80v24H0z"/></symbol><symbol id="b"><path fill="#6f7683" d="M0 0h1.102v2.171H0z"/></symbol></defs><path class="a" d="M0 0h80v52.104H0z"/><g style="animation-duration:.007037s;animation-iteration-count:infinite;animation-name:f;animation-timing-function:steps(1,end)"><svg width="240"><svg><use xlink:href="#a"/><use xlink:href="#b" x="-.004"/></svg><svg x="80"><use xlink:href="#a"/><use xlink:href="#b" x="-.004" y="23.856"/><use xlink:href="#1" y="2.171"/><use xlink:href="#2" y="4.342"/><use xlink:href="#3" y="6.513"/><use xlink:href="#4" y="8.684"/><use xlink:href="#5" y="10.855"/><use xlink:href="#6" y="13.026"/><use xlink:href="#7" y="17.368"/><use xlink:href="#8" y="19.539"/></svg><svg x="160"><use xlink:href="#a"/><use xlink:href="#b" x="-.004" y="49.908"/><use xlink:href="#1" y="2.171"/><use xlink:href="#2" y="4.342"/><use xlink:href="#3" y="6.513"/><use xlink:href="#4" y="8.684"/><use xlink:href="#5" y="10.855"/><use xlink:href="#6" y="13.026"/><use xlink:href="#7" y="17.368"/><use xlink:href="#8" y="19.539"/><text y="25.551" class="c">Usage:</text><text x="2.004" y="27.722" class="c">adguard-update</text><text x="17.034" y="27.722" class="c">[OPTIONS]</text><text y="32.064" class="c">Options:</text><text x="2.004" y="34.235" class="c">--check</text><text x="2.004" y="36.406" class="c">--dry-run</text><text x="2.004" y="38.577" class="c">--force</text><text x="2.004" y="40.748" class="c">--self-update</text><text x="2.004" y="42.919" class="c">--status</text><text x="2.004" y="45.09" class="c">--version</text><text x="2.004" y="47.261" class="c">--help</text></svg></svg></g></g></svg></svg>